
        <svg xmlns="http://www.w3.org/2000/svg" xmlns:xlink="http://www.w3.org/1999/xlink" version="1.1" width="3285.714285714286" 
        height="1221.6800362723216" viewBox="0 0 3285.714285714286 1221.6800362723216">
			
			<g transform="scale(14.285714285714286) translate(10, 10)">
				<defs id="SvgjsDefs3106"></defs><g id="SvgjsG3107" featureKey="xG21Y3-0" transform="matrix(0.8,0,0,0.8,7.62939453125e-7,0)" fill="#294a48"><g xmlns="http://www.w3.org/2000/svg"><path fill="#294a48" d="M72.775,56.224c1.18-0.372,2.904-0.412,4.1-0.412c0.73,0,1.485,0.018,2.218,0.033   c0.72,0.018,1.466,0.036,2.176,0.036c5.072,0,9.847-2.147,13.442-6.051C98.073,46.187,100,41.302,100,36.433   c0-5.113-1.983-9.73-5.591-13c-3.389-3.074-8.058-4.768-13.141-4.768c-1.846,0-3.399,0.273-4.692,0.595   c0.009-1.216,0.013-2.486,0.013-3.814c0-3.505-2.229-8.421-12.855-11.933C56.878,1.247,47.842,0,38.295,0   c-9.548,0-18.583,1.248-25.44,3.513C2.23,7.024,0,11.94,0,15.446c0,14.945,0.519,26.825,3.047,36.22   c2.457,9.117,6.747,16.093,14.348,23.318c4.755,4.521,11.982,6.913,20.898,6.913c8.919,0,16.146-2.393,20.9-6.913   c5.787-5.501,9.699-11.117,12.681-18.205C71.916,56.687,72.009,56.465,72.775,56.224z M68.034,55.165   c-2.635,6.268-6.133,11.498-11.711,16.802c-3.898,3.706-10.034,5.763-18.028,5.763c-7.995,0-14.133-2.059-18.03-5.763   C6.548,58.92,4.167,46.824,4.167,15.447c0-6.229,15.279-11.278,34.127-11.278c18.848,0,34.127,5.049,34.127,11.278   c0,3.163-0.023,6.124-0.081,8.917c0.202,0.029,0.404,0.044,0.608,0.044c2.149,0,4.391-1.576,8.319-1.576   c4.047,0,7.721,1.311,10.343,3.687c2.723,2.47,4.223,5.99,4.223,9.914c0,3.834-1.526,7.688-4.187,10.573   c-2.799,3.035-6.484,4.708-10.379,4.708c-1.358,0-2.877-0.072-4.394-0.072C73.101,51.642,69.331,52.084,68.034,55.165z"></path><path fill="#294a48" d="M81.269,46.005c4.782-0.482,8.855-4.472,8.855-9.571c0-4.794-3.476-7.892-8.855-7.892   c-4.453,0-7.686,2.281-9.302,5.24c-0.166,2.615-1.311,10.613-1.594,12.898c1.174-0.695,2.806-0.881,4.502-0.881   c1.949,0,3.983,0.245,5.5,0.245C80.698,46.045,80.999,46.034,81.269,46.005z M76.036,35.139c0.762-1.023,2.335-2.429,5.232-2.429   c2.14,0,4.69,0.646,4.69,3.725c0,3.071-2.598,5.172-5.108,5.425c-0.077,0.008-0.225,0.017-0.476,0.017   c-0.576,0-1.335-0.05-2.139-0.103c-0.917-0.059-1.942-0.127-2.988-0.141C75.56,39.284,75.872,36.824,76.036,35.139z"></path><path fill="#294a48" d="M62.768,12.169c-0.507-0.272-1.138-0.083-1.413,0.424c-0.271,0.506-0.083,1.138,0.425,1.412   c1.388,0.748,2.184,1.552,2.184,2.204c0,0.581-0.645,1.39-2.243,2.237c-3.851-2.821-12.888-4.805-23.426-4.805   c-10.54,0-19.576,1.983-23.427,4.805c-1.597-0.847-2.241-1.655-2.241-2.237c0-0.655,0.799-1.46,2.192-2.209   c0.507-0.272,0.696-0.904,0.425-1.412c-0.275-0.506-0.906-0.696-1.413-0.424c-2.183,1.173-3.289,2.533-3.289,4.043   c0,3.281,5.285,5.599,12.562,6.897c-0.947,1.104-1.412,2.809-1.412,5.195v10.342c-0.226,0.111-0.439,0.258-0.628,0.446   l-4.615,4.614c-0.918,0.921-1.672,2.735-1.672,4.035v7.566c0,1.299,1.064,2.364,2.364,2.364h11.186   c1.299,0,2.363-1.065,2.363-2.364v-7.566c0-1.3-0.751-3.114-1.67-4.035l-4.614-4.614c-0.188-0.188-0.401-0.335-0.629-0.446V28.299   c0-1.992,0.355-3.333,1.054-3.993c0.485-0.458,1.21-0.653,2.219-0.593c0.058,0.002,0.112-0.001,0.167-0.008   c3.512,0.413,7.301,0.624,11.079,0.624c13.791,0,27.751-2.79,27.751-8.123C66.046,14.702,64.943,13.341,62.768,12.169z"></path></g></g><g id="SvgjsG3108" featureKey="n48U4P-0" transform="matrix(0.8113290936304179,0,0,0.8113290936304179,99.12376541452237,21.359198141529486)" fill="#111111"><path d="M6.9 9.38 c1.4267 0 2.5666 0.5 3.42 1.5 s1.28 2.3534 1.28 4.06 c0 1.56 -0.41 2.84 -1.23 3.84 s-1.9233 1.5 -3.31 1.5 c-1.36 0 -2.3934 -0.52 -3.1 -1.56 l-0.04 0 l0 4.92 l-2.84 0 l0 -13.98 l2.7 0 l0 1.32 l0.04 0 c0.68 -1.0667 1.7067 -1.6 3.08 -1.6 z M3.82 14.86 c0 1.0133 0.21336 1.8133 0.64002 2.4 s1.04 0.88 1.84 0.88 c0.82666 0 1.4433 -0.29334 1.85 -0.88 s0.61 -1.3867 0.61 -2.4 c0 -1.04 -0.22 -1.8567 -0.66 -2.45 s-1.0533 -0.89 -1.84 -0.89 s-1.39 0.29334 -1.81 0.88 s-0.63 1.4067 -0.63 2.46 z M18.080000000000002 9.38 c0.97334 0 1.84 0.22664 2.6 0.67998 s1.3567 1.11 1.79 1.97 s0.65 1.85 0.65 2.97 c0 0.10666 -0.0066602 0.28 -0.02 0.52 l-7.46 0 c0.02666 0.82666 0.24332 1.47 0.64998 1.93 s1.03 0.69 1.87 0.69 c0.52 0 0.99666 -0.13 1.43 -0.39 s0.71 -0.57666 0.83 -0.95 l2.5 0 c-0.73334 2.32 -2.3466 3.48 -4.84 3.48 c-0.94666 -0.01334 -1.8233 -0.22 -2.63 -0.62 s-1.45 -1.0233 -1.93 -1.87 s-0.72 -1.83 -0.72 -2.95 c0 -1.0533 0.24334 -2.0134 0.73 -2.88 s1.1333 -1.5133 1.94 -1.94 s1.6767 -0.64 2.61 -0.64 z M20.259999999999998 13.719999999999999 c-0.13334 -0.77334 -0.38 -1.3333 -0.74 -1.68 s-0.87334 -0.52 -1.54 -0.52 c-0.69334 0 -1.24 0.19666 -1.64 0.59 s-0.63334 0.93 -0.7 1.61 l4.62 0 z M30.6 9.38 c1.4267 0 2.5666 0.5 3.42 1.5 s1.28 2.3534 1.28 4.06 c0 1.56 -0.41 2.84 -1.23 3.84 s-1.9233 1.5 -3.31 1.5 c-1.36 0 -2.3934 -0.52 -3.1 -1.56 l-0.04 0 l0 4.92 l-2.84 0 l0 -13.98 l2.7 0 l0 1.32 l0.04 0 c0.68 -1.0667 1.7067 -1.6 3.08 -1.6 z M27.520000000000003 14.86 c0 1.0133 0.21336 1.8133 0.64002 2.4 s1.04 0.88 1.84 0.88 c0.82666 0 1.4433 -0.29334 1.85 -0.88 s0.61 -1.3867 0.61 -2.4 c0 -1.04 -0.22 -1.8567 -0.66 -2.45 s-1.0533 -0.89 -1.84 -0.89 s-1.39 0.29334 -1.81 0.88 s-0.63 1.4067 -0.63 2.46 z M42.82 9.38 c1.4267 0 2.5666 0.5 3.42 1.5 s1.28 2.3534 1.28 4.06 c0 1.56 -0.41 2.84 -1.23 3.84 s-1.9233 1.5 -3.31 1.5 c-1.36 0 -2.3934 -0.52 -3.1 -1.56 l-0.04 0 l0 4.92 l-2.84 0 l0 -13.98 l2.7 0 l0 1.32 l0.04 0 c0.68 -1.0667 1.7067 -1.6 3.08 -1.6 z M39.74 14.86 c0 1.0133 0.21336 1.8133 0.64002 2.4 s1.04 0.88 1.84 0.88 c0.82666 0 1.4433 -0.29334 1.85 -0.88 s0.61 -1.3867 0.61 -2.4 c0 -1.04 -0.22 -1.8567 -0.66 -2.45 s-1.0533 -0.89 -1.84 -0.89 s-1.39 0.29334 -1.81 0.88 s-0.63 1.4067 -0.63 2.46 z M54 9.38 c0.97334 0 1.84 0.22664 2.6 0.67998 s1.3567 1.11 1.79 1.97 s0.65 1.85 0.65 2.97 c0 0.10666 -0.0066602 0.28 -0.02 0.52 l-7.46 0 c0.02666 0.82666 0.24332 1.47 0.64998 1.93 s1.03 0.69 1.87 0.69 c0.52 0 0.99666 -0.13 1.43 -0.39 s0.71 -0.57666 0.83 -0.95 l2.5 0 c-0.73334 2.32 -2.3466 3.48 -4.84 3.48 c-0.94666 -0.01334 -1.8233 -0.22 -2.63 -0.62 s-1.45 -1.0233 -1.93 -1.87 s-0.72 -1.83 -0.72 -2.95 c0 -1.0533 0.24334 -2.0134 0.73 -2.88 s1.1333 -1.5133 1.94 -1.94 s1.6767 -0.64 2.61 -0.64 z M56.18 13.719999999999999 c-0.13334 -0.77334 -0.38 -1.3333 -0.74 -1.68 s-0.87334 -0.52 -1.54 -0.52 c-0.69334 0 -1.24 0.19666 -1.64 0.59 s-0.63334 0.93 -0.7 1.61 l4.62 0 z M66.74000000000001 9.38 c0.24 0 0.44668 0.03334 0.62002 0.1 l0 2.64 c-0.30666 -0.06666 -0.64666 -0.1 -1.02 -0.1 c-1.8667 0 -2.8 1.1067 -2.8 3.32 l0 4.66 l-2.84 0 l0 -10.34 l2.7 0 l0 1.92 l0.04 0 c0.28 -0.66666 0.72334 -1.2 1.33 -1.6 s1.2633 -0.6 1.97 -0.6 z M74.44000000000001 9.38 c1.5067 0 2.5134 0.57332 3.02 1.72 c0.78666 -1.1467 1.8333 -1.72 3.14 -1.72 c1.2933 0 2.2434 0.32666 2.85 0.98 s0.91 1.5533 0.91 2.7 l0 6.94 l-2.84 0 l0 -5.98 c0 -0.90666 -0.13666 -1.5333 -0.41 -1.88 s-0.71668 -0.52 -1.33 -0.52 c-1.2667 0 -1.9 0.86666 -1.9 2.6 l0 5.78 l-2.84 0 l0 -6.1 c0 -0.88 -0.14 -1.48 -0.42 -1.8 s-0.71334 -0.48 -1.3 -0.48 c-0.54666 0 -1.0033 0.21666 -1.37 0.65 s-0.55 1.0033 -0.55 1.71 l0 6.02 l-2.84 0 l0 -10.34 l2.68 0 l0 1.4 l0.04 0 c0.78666 -1.12 1.84 -1.68 3.16 -1.68 z M89.52000000000001 5.720000000000001 l0 2.34 l-2.84 0 l0 -2.34 l2.84 0 z M89.52000000000001 9.66 l0 10.34 l-2.84 0 l0 -10.34 l2.84 0 z M97.7 9.38 c1.32 0 2.2766 0.33338 2.87 1 s0.89 1.7267 0.89 3.18 l0 6.44 l-2.84 0 l0 -5.86 c0 -0.85334 -0.13666 -1.4867 -0.41 -1.9 s-0.74334 -0.62 -1.41 -0.62 c-0.77334 0 -1.3333 0.23334 -1.68 0.7 s-0.52 1.2333 -0.52 2.3 l0 5.38 l-2.84 0 l0 -10.34 l2.7 0 l0 1.44 l0.06 0 c0.70666 -1.1467 1.7667 -1.72 3.18 -1.72 z M107.22 6.5600000000000005 l0.000019531 3.1 l2.08 0 l0 1.9 l-2.08 0 l0 5.12 c0 0.48 0.08 0.8 0.24 0.96 s0.48 0.24 0.96 0.24 c0.34666 0 0.64 -0.02666 0.88 -0.08 l0 2.22 c-0.4 0.06666 -0.96 0.1 -1.68 0.1 c-1.0933 0 -1.9067 -0.18666 -2.44 -0.56 s-0.8 -1.02 -0.8 -1.94 l0 -6.06 l-1.72 0 l0 -1.9 l1.72 0 l0 -3.1 l2.84 0 z M113.92000000000002 16.92 l0 3.08 l-3.14 0 l0 -3.08 l3.14 0 z M120.46000000000001 9.38 c1.3867 0 2.47 0.28002 3.25 0.84002 s1.2167 1.38 1.31 2.46 l-2.7 0 c-0.04 -0.49334 -0.22 -0.85 -0.54 -1.07 s-0.78666 -0.33 -1.4 -0.33 c-0.53334 0 -0.93 0.08 -1.19 0.24 s-0.39 0.4 -0.39 0.72 c0 0.24 0.08666 0.44 0.26 0.6 s0.43668 0.3 0.79002 0.42 s0.74334 0.22 1.17 0.3 c1.2933 0.25334 2.2066 0.51334 2.74 0.78 s0.92334 0.58666 1.17 0.96 s0.37 0.83334 0.37 1.38 c0 1.16 -0.42334 2.05 -1.27 2.67 s-1.9967 0.93 -3.45 0.93 c-1.52 0 -2.7034 -0.32666 -3.55 -0.98 s-1.2833 -1.54 -1.31 -2.66 l2.7 0 c0 0.53334 0.20666 0.95668 0.62 1.27 s0.93334 0.47 1.56 0.47 c0.53334 0 0.97668 -0.11666 1.33 -0.35 s0.53 -0.55668 0.53 -0.97002 c0 -0.26666 -0.11 -0.48666 -0.33 -0.66 s-0.53 -0.32668 -0.93 -0.46002 s-1.02 -0.28668 -1.86 -0.46002 c-0.66666 -0.13334 -1.26 -0.31334 -1.78 -0.54 s-0.91666 -0.52332 -1.19 -0.88998 s-0.41 -0.81666 -0.41 -1.35 c0 -0.68 0.16334 -1.2733 0.49 -1.78 s0.82666 -0.89 1.5 -1.15 s1.51 -0.39 2.51 -0.39 z M129.8 5.720000000000001 l0 5.38 l0.06 0 c0.32 -0.53334 0.75334 -0.95334 1.3 -1.26 s1.1267 -0.46 1.74 -0.46 c1.32 0 2.2766 0.33334 2.87 1 s0.89 1.72 0.89 3.16 l0 6.46 l-2.84 0 l0 -5.88 c0 -0.84 -0.13666 -1.4667 -0.41 -1.88 s-0.74334 -0.62 -1.41 -0.62 c-0.76 0 -1.3167 0.23 -1.67 0.69 s-0.53 1.2167 -0.53 2.27 l0 5.42 l-2.84 0 l0 -14.28 l2.84 0 z"></path></g>
			</g>
		</svg>
	