
        <svg xmlns="http://www.w3.org/2000/svg" xmlns:xlink="http://www.w3.org/1999/xlink" version="1.1" width="3300" height="2120.9051488597206" viewBox="0 0 3300 2120.9051488597206">
			
			<g transform="scale(15) translate(10, 10)">
				<defs id="SvgjsDefs2042"/><g id="SvgjsG2043" featureKey="xG21Y3-0" transform="matrix(1,0,0,1,50.000000953674316,0)" fill="#000"><g xmlns="http://www.w3.org/2000/svg"><path d="M72.775,56.224c1.18-0.372,2.904-0.412,4.1-0.412c0.73,0,1.485,0.018,2.218,0.033   c0.72,0.018,1.466,0.036,2.176,0.036c5.072,0,9.847-2.147,13.442-6.051C98.073,46.187,100,41.302,100,36.433   c0-5.113-1.983-9.73-5.591-13c-3.389-3.074-8.058-4.768-13.141-4.768c-1.846,0-3.399,0.273-4.692,0.595   c0.009-1.216,0.013-2.486,0.013-3.814c0-3.505-2.229-8.421-12.855-11.933C56.878,1.247,47.842,0,38.295,0   c-9.548,0-18.583,1.248-25.44,3.513C2.23,7.024,0,11.94,0,15.446c0,14.945,0.519,26.825,3.047,36.22   c2.457,9.117,6.747,16.093,14.348,23.318c4.755,4.521,11.982,6.913,20.898,6.913c8.919,0,16.146-2.393,20.9-6.913   c5.787-5.501,9.699-11.117,12.681-18.205C71.916,56.687,72.009,56.465,72.775,56.224z M68.034,55.165   c-2.635,6.268-6.133,11.498-11.711,16.802c-3.898,3.706-10.034,5.763-18.028,5.763c-7.995,0-14.133-2.059-18.03-5.763   C6.548,58.92,4.167,46.824,4.167,15.447c0-6.229,15.279-11.278,34.127-11.278c18.848,0,34.127,5.049,34.127,11.278   c0,3.163-0.023,6.124-0.081,8.917c0.202,0.029,0.404,0.044,0.608,0.044c2.149,0,4.391-1.576,8.319-1.576   c4.047,0,7.721,1.311,10.343,3.687c2.723,2.47,4.223,5.99,4.223,9.914c0,3.834-1.526,7.688-4.187,10.573   c-2.799,3.035-6.484,4.708-10.379,4.708c-1.358,0-2.877-0.072-4.394-0.072C73.101,51.642,69.331,52.084,68.034,55.165z"/><path d="M81.269,46.005c4.782-0.482,8.855-4.472,8.855-9.571c0-4.794-3.476-7.892-8.855-7.892   c-4.453,0-7.686,2.281-9.302,5.24c-0.166,2.615-1.311,10.613-1.594,12.898c1.174-0.695,2.806-0.881,4.502-0.881   c1.949,0,3.983,0.245,5.5,0.245C80.698,46.045,80.999,46.034,81.269,46.005z M76.036,35.139c0.762-1.023,2.335-2.429,5.232-2.429   c2.14,0,4.69,0.646,4.69,3.725c0,3.071-2.598,5.172-5.108,5.425c-0.077,0.008-0.225,0.017-0.476,0.017   c-0.576,0-1.335-0.05-2.139-0.103c-0.917-0.059-1.942-0.127-2.988-0.141C75.56,39.284,75.872,36.824,76.036,35.139z"/><path d="M62.768,12.169c-0.507-0.272-1.138-0.083-1.413,0.424c-0.271,0.506-0.083,1.138,0.425,1.412   c1.388,0.748,2.184,1.552,2.184,2.204c0,0.581-0.645,1.39-2.243,2.237c-3.851-2.821-12.888-4.805-23.426-4.805   c-10.54,0-19.576,1.983-23.427,4.805c-1.597-0.847-2.241-1.655-2.241-2.237c0-0.655,0.799-1.46,2.192-2.209   c0.507-0.272,0.696-0.904,0.425-1.412c-0.275-0.506-0.906-0.696-1.413-0.424c-2.183,1.173-3.289,2.533-3.289,4.043   c0,3.281,5.285,5.599,12.562,6.897c-0.947,1.104-1.412,2.809-1.412,5.195v10.342c-0.226,0.111-0.439,0.258-0.628,0.446   l-4.615,4.614c-0.918,0.921-1.672,2.735-1.672,4.035v7.566c0,1.299,1.064,2.364,2.364,2.364h11.186   c1.299,0,2.363-1.065,2.363-2.364v-7.566c0-1.3-0.751-3.114-1.67-4.035l-4.614-4.614c-0.188-0.188-0.401-0.335-0.629-0.446V28.299   c0-1.992,0.355-3.333,1.054-3.993c0.485-0.458,1.21-0.653,2.219-0.593c0.058,0.002,0.112-0.001,0.167-0.008   c3.512,0.413,7.301,0.624,11.079,0.624c13.791,0,27.751-2.79,27.751-8.123C66.046,14.702,64.943,13.341,62.768,12.169z"/></g></g><g id="SvgjsG2044" featureKey="nameFeature-0" transform="matrix(1.4074451175113374,0,0,1.4074451175113374,-1.6697790402867634,93.10173328296517)" fill="#000"><path d="M6.322 6.441000000000001 c3.0846 0 4.6437 2.4407 4.6437 4.4576 c0 2.0847 -1.5593 4.4746 -4.6439 4.4746 l-3.7966 0 l0 4.3898 c0 0.15254 -0.067797 0.23712 -0.20339 0.23712 l-0.91525 0 c-0.15238 0 -0.22017 -0.08458 -0.22017 -0.23712 l0 -13.102 c0 -0.15254 0.067797 -0.22034 0.22017 -0.22034 l4.9154 0 z M6.271 14.1019 c2.1864 0 3.3559 -1.6102 3.3559 -3.2034 s-1.1695 -3.1695 -3.3559 -3.1695 l-3.7456 0 l0 6.3729 l3.7456 0 z M21.44047627118644 7.728999999999999 l-7.3556 0.00049656 l0 4.9659 l4.5424 0 c0.15254 0 0.23729 0.067797 0.23729 0.23729 l0 0.81339 c0 0.15254 -0.084746 0.22034 -0.23729 0.22034 l-4.5424 0 l0 4.7458 l7.3559 0 c0.15254 0 0.23712 0.084746 0.23712 0.23712 l0 0.81356 c0 0.16949 -0.067797 0.23712 -0.23729 0.23712 l-8.4746 0 c-0.15254 0 -0.22034 -0.08458 -0.22034 -0.22017 l0 -13.119 c0 -0.15254 0.084746 -0.22034 0.22034 -0.22034 l8.4746 0 c0.15254 0 0.23712 0.084746 0.23712 0.22034 l0 0.84746 c0 0.13559 -0.067797 0.22034 -0.23729 0.22034 z M28.999966101694913 6.441000000000001 c3.0846 0 4.6437 2.4407 4.6437 4.4576 c0 2.0847 -1.5593 4.4746 -4.6439 4.4746 l-3.7966 0 l0 4.3898 c0 0.15254 -0.067797 0.23712 -0.20339 0.23712 l-0.91525 0 c-0.15238 0 -0.22017 -0.08458 -0.22017 -0.23712 l0 -13.102 c0 -0.15254 0.067797 -0.22034 0.22017 -0.22034 l4.9154 0 z M28.948966101694914 14.1019 c2.1864 0 3.3559 -1.6102 3.3559 -3.2034 s-1.1695 -3.1695 -3.3559 -3.1695 l-3.7456 0 l0 6.3729 l3.7456 0 z M40.47454237288136 6.441000000000001 c3.0846 0 4.6437 2.4407 4.6437 4.4576 c0 2.0847 -1.5593 4.4746 -4.6439 4.4746 l-3.7966 0 l0 4.3898 c0 0.15254 -0.067797 0.23712 -0.20339 0.23712 l-0.91525 0 c-0.15238 0 -0.22017 -0.08458 -0.22017 -0.23712 l0 -13.102 c0 -0.15254 0.067797 -0.22034 0.22017 -0.22034 l4.9154 0 z M40.42354237288136 14.1019 c2.1864 0 3.3559 -1.6102 3.3559 -3.2034 s-1.1695 -3.1695 -3.3559 -3.1695 l-3.7456 0 l0 6.3729 l3.7456 0 z M55.5930186440678 7.728999999999999 l-7.3556 0.00049656 l0 4.9659 l4.5424 0 c0.15254 0 0.23729 0.067797 0.23729 0.23729 l0 0.81339 c0 0.15254 -0.084746 0.22034 -0.23729 0.22034 l-4.5424 0 l0 4.7458 l7.3559 0 c0.15254 0 0.23712 0.084746 0.23712 0.23712 l0 0.81356 c0 0.16949 -0.067797 0.23712 -0.23729 0.23712 l-8.4746 0 c-0.15254 0 -0.22034 -0.08458 -0.22034 -0.22017 l0 -13.119 c0 -0.15254 0.084746 -0.22034 0.22034 -0.22034 l8.4746 0 c0.15254 0 0.23712 0.084746 0.23712 0.22034 l0 0.84746 c0 0.13559 -0.067797 0.22034 -0.23729 0.22034 z M67.77920338983051 19.76288 c0.084746 0.13559 0.033732 0.23712 -0.11881 0.23712 l-0.88136 0 c-0.27119 0 -0.45763 -0.22017 -0.55932 -0.37271 l-3 -4.2542 l-0.050847 0 l-3.8814 0 l0 4.3898 c0 0.15254 -0.067797 0.23712 -0.23729 0.23712 l-0.88136 0 c-0.15254 0 -0.22034 -0.08458 -0.22034 -0.23712 l0 -13.102 c0 -0.15254 0.067797 -0.22034 0.22034 -0.22034 l5 0 c3.1695 0 4.6273 2.4576 4.6273 4.4746 c0 1.7288 -1.0508 3.7288 -3.2712 4.3051 z M59.288003389830514 7.728999999999999 l0.00016552 6.3727 l3.7797 0 c2.3051 0 3.4066 -1.6102 3.4066 -3.2203 c0 -1.5932 -1.1186 -3.1524 -3.4068 -3.1524 l-3.7797 0 z M85.2711186440678 6.441000000000001 c0.11864 0 0.20339 0.10186 0.20339 0.23746 l0 13.085 c0 0.15254 -0.084746 0.23712 -0.22034 0.23712 l-0.88136 0 c-0.16949 0 -0.23729 -0.08458 -0.23729 -0.23712 l0 -10.61 l-6.1697 10.407 c-0.067797 0.11864 -0.13559 0.16949 -0.25424 0.16949 l-0.067797 0 c-0.10169 0 -0.18644 -0.050847 -0.25424 -0.16949 l-6.1525 -10.407 l0 10.61 c0 0.15254 -0.084746 0.23712 -0.22034 0.23712 l-0.88136 0 c-0.15254 0 -0.23729 -0.08458 -0.23729 -0.23712 l0 -13.102 c0 -0.11881 0.067797 -0.22051 0.20339 -0.22051 l0.81356 0 c0.11864 0 0.18644 0.050847 0.25424 0.15271 l6.5086 10.983 l6.5254 -10.983 c0.050847 -0.10186 0.11864 -0.15271 0.27119 -0.15271 l0.79661 0 z M89.18646271186442 6.441000000000001 l-0.86441 0 c-0.15254 0 -0.22034 0.067797 -0.22034 0.22034 l0 13.119 c0 0.13559 0.067797 0.22017 0.22034 0.22017 l0.88136 0 c0.11864 0 0.20339 -0.08458 0.20339 -0.22017 l0 -13.119 c0 -0.15254 -0.084746 -0.22034 -0.22034 -0.22034 z M103.44071186440678 6.441000000000001 c0.11864 0 0.20356 0.067631 0.20356 0.18627 l0 13.186 c0 0.11881 -0.084746 0.18644 -0.20339 0.18644 l-0.35593 0 c-0.25441 0 -0.49169 -0.16933 -0.81373 -0.52525 l-8.9153 -10.525 l0 10.831 c0 0.13559 -0.084746 0.22017 -0.22034 0.22017 l-0.88136 0 c-0.15254 0 -0.22034 -0.08458 -0.22034 -0.22017 l0 -13.136 c0 -0.11864 0.067797 -0.20339 0.20339 -0.20339 l0.55932 0 c0.11864 0 0.20339 0.050847 0.32203 0.18644 l9.2034 10.932 l0 -10.932 c0 -0.11864 0.067797 -0.18644 0.18644 -0.18644 l0.9322 0 z M116.00025423728815 6.441000000000001 c0.15254 0 0.22051 0.067797 0.22051 0.22034 l0 0.84746 c0 0.13559 -0.067797 0.22034 -0.22034 0.22034 l-4.3729 0 l0 12.034 c0 0.15254 -0.067797 0.23712 -0.20339 0.23712 l-0.67797 0 c-0.30508 0 -0.45763 -0.18644 -0.45763 -0.47441 l0 -11.797 l-4.3729 0 c-0.15254 0 -0.23729 -0.084746 -0.23729 -0.22034 l0 -0.83051 c0 -0.16949 0.084746 -0.23729 0.23729 -0.23729 l10.085 0 z M118.60995084745764 20.067797 c-0.45763 0 -0.86441 -0.37288 -0.86441 -0.84746 c0 -0.45763 0.40678 -0.86441 0.86441 -0.86441 s0.84746 0.40678 0.84746 0.86441 c0 0.47458 -0.38983 0.84746 -0.84746 0.84746 z M121.06779898305085 17.729 l0.47441 -0.55932 c0.15238 -0.15254 0.30492 -0.13559 0.44051 -0.033898 c0.32203 0.27119 1.6441 1.7119 3.5254 1.7119 c2.2373 0 3.2203 -1.2203 3.2203 -2.4237 c0 -1.7288 -1.9663 -2.1864 -3.7459 -2.8305 c-2.0169 -0.76271 -3.7458 -1.678 -3.7458 -3.7119 c0 -1.6949 1.2373 -3.5593 4.2712 -3.5593 c2.0847 0 3.5932 1.2542 4 1.6102 c0.13559 0.11864 0.18644 0.27119 0.084912 0.40678 l-0.44068 0.57627 c-0.10169 0.13559 -0.23729 0.16949 -0.38983 0.067797 c-0.33898 -0.25424 -1.5592 -1.3898 -3.2371 -1.3898 c-1.8985 0 -2.9663 1 -2.9663 2.288 c0 1.4915 1.5086 2.0169 3.4917 2.7288 c1.8136 0.67797 4 1.5932 4 3.8305 c0 1.9661 -1.8303 3.6608 -4.5253 3.6608 c-2.4746 0 -4 -1.61 -4.3898 -1.9998 c-0.11864 -0.11864 -0.22034 -0.22034 -0.067797 -0.37271 z M143.0505593220339 6.441000000000001 c0.15254 0 0.23729 0.067963 0.23729 0.22051 l0 13.119 c0 0.13559 -0.067797 0.22017 -0.20339 0.22017 l-0.6778 0 c-0.30508 0 -0.44068 -0.18644 -0.44068 -0.45763 l0 -5.5593 l-8.5593 0 l0 5.7797 c0 0.15254 -0.067797 0.23712 -0.22034 0.23712 l-0.86441 0 c-0.16966 0 -0.23746 -0.08458 -0.23746 -0.23712 l0 -13.102 c0 -0.15254 0.067797 -0.22034 0.22034 -0.22034 l0.88136 0 c0.13559 0 0.22034 0.067797 0.22034 0.22034 l0 6 l8.5593 0 l0 -6 c0 -0.15254 0.067797 -0.22034 0.20339 -0.22034 l0.88136 0 z"/></g>
			</g>
		</svg>
	