<?xml version="1.0" standalone="no"?>
<!DOCTYPE svg PUBLIC "-//W3C//DTD SVG 20010904//EN"
 "http://www.w3.org/TR/2001/REC-SVG-20010904/DTD/svg10.dtd">
<svg version="1.0" xmlns="http://www.w3.org/2000/svg"
 width="3286.000000pt" height="1222.000000pt" viewBox="0 0 3286.000000 1222.000000"
 preserveAspectRatio="xMidYMid meet">

<g transform="translate(0.000000,1222.000000) scale(0.100000,-0.100000)"
fill="#000000" stroke="none">
<path d="M5270 10780 c-588 -30 -1196 -103 -1645 -199 -231 -49 -270 -59 -510
-127 -717 -205 -1207 -478 -1463 -817 -86 -113 -135 -201 -172 -309 -52 -155
-54 -184 -47 -882 10 -986 39 -1591 107 -2231 185 -1733 676 -2813 1767 -3885
202 -199 287 -270 458 -382 547 -358 1292 -535 2165 -515 551 12 995 95 1424
263 355 139 618 310 900 584 580 564 993 1144 1311 1844 105 230 98 222 257
258 87 20 123 22 588 23 464 2 503 3 625 24 299 52 560 153 798 310 757 499
1153 1418 986 2291 -28 144 -54 235 -110 373 -236 587 -737 1015 -1378 1177
-339 86 -692 99 -1008 39 -59 -11 -116 -22 -125 -25 -17 -5 -18 12 -18 259 0
280 -7 351 -50 477 -158 463 -703 848 -1566 1104 -605 180 -1250 285 -2054
336 -225 14 -1025 21 -1240 10z m1305 -489 c66 -6 179 -15 250 -21 722 -60
1459 -217 1970 -417 542 -214 866 -488 905 -768 6 -43 7 -266 3 -577 l-6 -508
55 0 c79 0 175 20 393 83 274 79 360 92 595 91 205 -1 311 -14 480 -59 391
-104 710 -322 905 -620 185 -282 266 -582 252 -934 -18 -436 -192 -845 -495
-1162 -246 -259 -524 -415 -872 -491 -101 -22 -123 -23 -590 -24 -407 0 -503
-3 -595 -18 -284 -44 -450 -126 -559 -275 -20 -26 -64 -113 -99 -192 -298
-671 -647 -1177 -1177 -1709 -115 -116 -225 -216 -291 -265 -383 -282 -852
-442 -1473 -501 -136 -13 -241 -15 -511 -11 -187 3 -378 11 -425 16 -611 78
-1065 249 -1435 541 -105 83 -442 421 -580 584 -295 345 -506 658 -685 1017
-429 856 -617 1893 -670 3694 -14 489 -14 1324 1 1378 31 117 147 270 293 387
165 130 444 270 759 379 622 215 1320 335 2297 395 121 8 1193 -3 1305 -13z"/>
<path d="M3045 9410 c-64 -14 -199 -107 -283 -193 -176 -184 -171 -389 12
-572 189 -188 566 -345 1106 -459 63 -13 132 -27 153 -30 l37 -7 -24 -32 c-35
-46 -83 -151 -100 -222 -32 -126 -36 -208 -36 -862 0 -629 -1 -662 -18 -667
-10 -4 -160 -149 -333 -324 -304 -305 -317 -320 -357 -402 -83 -172 -83 -170
-80 -747 l3 -508 27 -47 c16 -25 45 -60 65 -77 75 -62 59 -61 809 -61 658 0
685 1 737 20 60 22 113 73 148 140 l24 45 0 500 c0 492 0 501 -23 579 -29 102
-77 198 -134 272 -55 71 -600 614 -617 614 -18 0 -15 1310 4 1414 17 95 63
193 110 235 71 62 156 71 408 46 302 -30 591 -46 957 -52 509 -8 936 13 1420
68 1057 120 1760 391 1892 729 33 86 30 188 -9 271 -17 35 -45 82 -63 104 -69
86 -239 208 -313 225 -71 15 -137 -40 -137 -115 0 -55 22 -82 107 -133 139
-82 212 -173 199 -247 -9 -47 -86 -129 -176 -187 l-74 -47 -31 20 c-309 203
-794 355 -1430 448 -606 88 -1391 106 -2029 46 -824 -78 -1469 -248 -1819
-481 l-49 -32 -55 32 c-134 75 -219 187 -194 256 19 56 71 109 172 175 112 74
129 94 129 148 0 32 -23 97 -34 97 -2 0 -19 6 -37 13 -20 8 -46 11 -64 7z"/>
<path d="M10568 7519 c-223 -23 -442 -108 -608 -235 -78 -59 -201 -190 -256
-274 l-48 -71 -13 -132 c-18 -180 -54 -467 -118 -941 -30 -220 -53 -401 -51
-403 1 -2 23 6 47 16 24 11 82 30 129 43 79 21 104 23 345 23 143 0 359 -4
480 -9 250 -10 322 -3 467 44 171 55 315 140 441 259 105 101 167 184 233 316
195 391 132 851 -152 1115 -207 193 -544 286 -896 249z m325 -484 c161 -28
283 -114 327 -231 28 -74 37 -209 21 -296 -20 -106 -84 -220 -171 -309 -62
-63 -93 -85 -171 -122 -120 -59 -156 -66 -309 -67 -103 0 -549 20 -557 25 -2
1 15 143 36 316 22 173 42 341 46 374 7 58 9 62 79 130 135 133 294 192 516
194 58 0 140 -6 183 -14z"/>
<path d="M25640 6940 l0 -140 163 2 162 3 0 135 0 135 -162 3 -163 2 0 -140z"/>
<path d="M30310 6250 l0 -830 165 0 164 0 3 393 c3 388 3 393 27 445 44 98
117 137 243 130 74 -4 107 -21 145 -77 38 -56 43 -114 43 -511 l0 -380 165 0
165 0 0 420 c0 471 -6 528 -64 635 -65 120 -172 170 -361 170 -103 0 -114 -2
-178 -32 -46 -22 -88 -53 -128 -93 l-59 -60 -2 307 -3 308 -162 3 -163 2 0
-830z"/>
<path d="M27690 6800 l0 -180 -100 0 -100 0 0 -110 0 -110 100 0 99 0 3 -402
c3 -401 3 -403 27 -451 46 -93 135 -128 343 -135 214 -6 198 -17 198 132 l0
124 -95 4 c-150 5 -139 -23 -143 388 l-3 340 121 0 120 0 0 110 0 110 -120 0
-120 0 0 180 0 180 -165 0 -165 0 0 -180z"/>
<path d="M16264 6636 c-71 -17 -133 -56 -188 -117 l-46 -51 0 76 0 76 -155 0
-155 0 0 -810 0 -810 160 0 160 0 0 280 c0 154 3 280 6 280 4 0 24 -20 46 -45
25 -28 66 -58 113 -81 63 -31 86 -37 163 -42 224 -12 393 83 490 277 61 120
75 203 69 379 -4 107 -10 163 -24 207 -84 257 -264 397 -509 394 -44 0 -102
-6 -130 -13z m189 -269 c100 -59 148 -173 148 -352 1 -245 -93 -375 -270 -375
-92 0 -136 15 -188 63 -78 72 -108 161 -107 322 0 136 27 224 89 293 58 65
105 83 206 79 61 -3 85 -9 122 -30z"/>
<path d="M17555 6640 c-223 -45 -399 -216 -461 -450 -23 -85 -23 -261 0 -350
70 -279 299 -450 601 -450 106 0 221 26 294 66 105 57 175 139 235 277 l26 57
-143 0 -143 0 -31 -44 c-21 -30 -49 -52 -89 -72 -53 -26 -69 -29 -159 -29 -84
0 -107 4 -142 22 -76 41 -117 110 -138 236 l-6 37 436 0 435 0 0 64 c0 318
-176 568 -442 631 -67 16 -207 18 -273 5z m220 -251 c72 -20 124 -90 160 -216
l6 -23 -269 0 -270 0 10 42 c20 91 79 165 153 192 48 18 155 20 210 5z"/>
<path d="M19010 6636 c-84 -24 -136 -58 -197 -129 l-33 -38 0 76 0 75 -160 0
-160 0 0 -810 0 -810 165 0 165 0 0 286 0 287 42 -48 c101 -115 251 -158 434
-124 86 16 157 53 227 119 74 69 116 137 154 245 25 74 27 92 27 240 1 138 -2
171 -22 240 -58 201 -186 338 -361 387 -76 21 -212 23 -281 4z m151 -251 c84
-30 154 -122 178 -233 14 -68 14 -206 0 -274 -16 -76 -64 -162 -108 -193 -50
-34 -92 -45 -171 -45 -167 0 -265 121 -277 341 -12 209 57 359 186 405 49 18
140 17 192 -1z"/>
<path d="M20437 6640 c-69 -18 -142 -62 -194 -118 l-53 -56 0 77 0 77 -155 0
-155 0 0 -810 0 -810 165 0 165 0 0 283 1 282 32 -36 c102 -116 260 -162 442
-128 86 16 171 63 240 133 71 71 115 150 147 261 31 110 31 322 0 436 -52 193
-171 334 -329 390 -66 24 -242 35 -306 19z m128 -251 c133 -33 217 -211 202
-424 -9 -117 -40 -199 -97 -256 -57 -57 -106 -73 -205 -67 -109 7 -175 51
-225 147 -48 95 -53 322 -10 435 27 70 97 146 150 163 47 15 131 16 185 2z"/>
<path d="M21714 6640 c-156 -31 -311 -143 -388 -282 -57 -103 -77 -179 -83
-308 -6 -145 11 -235 68 -348 98 -195 271 -297 519 -309 194 -9 315 33 431
147 61 60 121 155 143 228 l7 22 -144 0 -145 0 -20 -34 c-25 -42 -76 -81 -131
-101 -53 -19 -182 -19 -234 -1 -90 33 -153 120 -164 230 l-6 56 432 0 431 0 0
80 c0 257 -125 480 -322 573 -40 19 -97 40 -126 46 -60 12 -207 13 -268 1z
m241 -259 c69 -32 120 -105 140 -198 l7 -33 -266 0 c-300 0 -281 -6 -251 81
40 114 124 168 260 168 47 0 83 -5 110 -18z"/>
<path d="M23215 6636 c-102 -32 -197 -106 -245 -190 l-30 -51 0 113 0 112
-155 0 -155 0 0 -600 0 -600 164 0 165 0 3 348 3 347 33 67 c58 118 133 158
297 158 l105 0 0 149 c0 127 -2 150 -16 155 -26 10 -127 5 -169 -8z"/>
<path d="M24100 6636 c-78 -21 -123 -48 -187 -112 l-63 -62 0 79 0 79 -155 0
-155 0 0 -600 0 -600 165 0 164 0 3 403 c3 390 4 403 25 442 43 81 112 125
195 125 80 0 136 -32 168 -95 l25 -50 3 -412 3 -413 164 0 164 0 3 403 c3 361
5 406 21 442 41 90 106 129 211 123 87 -4 128 -29 160 -97 20 -44 21 -63 24
-458 l3 -413 165 0 165 0 -3 463 c-4 420 -6 467 -22 512 -66 176 -191 255
-405 255 -137 0 -234 -41 -322 -138 -32 -35 -54 -52 -57 -44 -22 66 -135 152
-224 171 -64 14 -182 13 -238 -3z"/>
<path d="M26796 6639 c-90 -22 -183 -88 -238 -169 -17 -24 -17 -23 -17 63 l-1
87 -155 0 -155 0 0 -600 0 -600 164 0 165 0 3 393 c3 388 3 393 27 445 44 98
117 137 243 130 74 -4 107 -21 145 -77 38 -56 43 -114 43 -511 l0 -380 166 0
165 0 -4 453 c-3 376 -6 461 -19 505 -39 128 -115 211 -226 247 -65 21 -244
30 -306 14z"/>
<path d="M29370 6636 c-171 -36 -265 -105 -311 -227 -45 -118 -32 -237 36
-316 58 -69 156 -108 425 -171 118 -28 200 -60 232 -93 23 -22 28 -36 28 -74
0 -41 -5 -52 -38 -85 -56 -56 -152 -75 -260 -50 -86 20 -162 97 -162 164 l0
26 -158 0 -159 0 9 -60 c11 -86 52 -162 118 -223 97 -89 210 -127 401 -134
272 -11 462 71 545 234 27 54 29 66 29 169 0 106 -1 113 -30 160 -59 96 -167
148 -419 203 -167 37 -238 64 -271 102 -27 33 -31 64 -14 102 17 37 63 58 142
64 133 10 225 -34 247 -118 l11 -39 154 0 c179 0 171 -6 134 102 -41 123 -130
205 -268 249 -85 28 -321 36 -421 15z"/>
<path d="M25640 6020 l0 -600 165 0 165 0 0 600 0 600 -165 0 -165 0 0 -600z"/>
<path d="M28430 5600 l0 -180 185 0 185 0 -2 178 -3 177 -182 3 -183 2 0 -180z"/>
</g>
</svg>
